<svg width="108" height="50" viewBox="0 0 108 50" fill="none" xmlns="http://www.w3.org/2000/svg">
<g filter="url(#filter0_d_5_22)">
<path d="M4 8C4 4.68629 6.68629 2 10 2H98C101.314 2 104 4.68629 104 8V38C104 41.3137 101.314 44 98 44H10C6.68629 44 4 41.3137 4 38V8Z" fill="white"/>
<path d="M4.5 8C4.5 4.96243 6.96243 2.5 10 2.5H98C101.038 2.5 103.5 4.96243 103.5 8V38C103.5 41.0376 101.038 43.5 98 43.5H10C6.96243 43.5 4.5 41.0376 4.5 38V8Z" stroke="#E7E8E3"/>
</g>
<path d="M40 18H38.3203C38.3203 17.375 38.1641 16.8151 37.8516 16.3203C37.5651 15.8255 37.1745 15.4349 36.6797 15.1484C36.1849 14.8359 35.625 14.6797 35 14.6797C34.375 14.6797 33.8151 14.8359 33.3203 15.1484C32.8255 15.4349 32.4219 15.8255 32.1094 16.3203C31.8229 16.8151 31.6797 17.375 31.6797 18H30C29.5312 18 29.1276 18.1693 28.7891 18.5078C28.4766 18.8203 28.3203 19.2109 28.3203 19.6797V29.6797C28.3203 30.1224 28.4766 30.513 28.7891 30.8516C29.1276 31.1641 29.5312 31.3203 30 31.3203H40C40.4688 31.3203 40.8594 31.1641 41.1719 30.8516C41.5104 30.513 41.6797 30.1224 41.6797 29.6797V19.6797C41.6797 19.2109 41.5104 18.8203 41.1719 18.5078C40.8594 18.1693 40.4688 18 40 18ZM33.3203 21.3203C33.3203 21.5547 33.2422 21.763 33.0859 21.9453C32.9297 22.1016 32.7344 22.1797 32.5 22.1797C32.2656 22.1797 32.0703 22.1016 31.9141 21.9453C31.7578 21.763 31.6797 21.5547 31.6797 21.3203V19.6797H33.3203V21.3203ZM35 16.3203C35.4688 16.3203 35.8594 16.4896 36.1719 16.8281C36.5104 17.1406 36.6797 17.5312 36.6797 18H33.3203C33.3203 17.5312 33.4766 17.1406 33.7891 16.8281C34.1276 16.4896 34.5312 16.3203 35 16.3203ZM38.3203 21.3203C38.3203 21.5547 38.2422 21.763 38.0859 21.9453C37.9297 22.1016 37.7344 22.1797 37.5 22.1797C37.2656 22.1797 37.0703 22.1016 36.9141 21.9453C36.7578 21.763 36.6797 21.5547 36.6797 21.3203V19.6797H38.3203V21.3203Z" fill="#2A2C1F"/>
<path d="M59.1016 24.3828H60.6016C60.5234 25.1016 60.3177 25.7448 59.9844 26.3125C59.651 26.8802 59.1797 27.3307 58.5703 27.6641C57.9609 27.9922 57.2005 28.1562 56.2891 28.1562C55.6224 28.1562 55.0156 28.0312 54.4688 27.7812C53.9271 27.5312 53.4609 27.1771 53.0703 26.7188C52.6797 26.2552 52.3776 25.7005 52.1641 25.0547C51.9557 24.4036 51.8516 23.6797 51.8516 22.8828V21.75C51.8516 20.9531 51.9557 20.2318 52.1641 19.5859C52.3776 18.9349 52.6823 18.3776 53.0781 17.9141C53.4792 17.4505 53.9609 17.0938 54.5234 16.8438C55.0859 16.5938 55.7188 16.4688 56.4219 16.4688C57.2812 16.4688 58.0078 16.6302 58.6016 16.9531C59.1953 17.276 59.6562 17.724 59.9844 18.2969C60.3177 18.8646 60.5234 19.5234 60.6016 20.2734H59.1016C59.0286 19.7422 58.8932 19.2865 58.6953 18.9062C58.4974 18.5208 58.2161 18.224 57.8516 18.0156C57.487 17.8073 57.0104 17.7031 56.4219 17.7031C55.9167 17.7031 55.4714 17.7995 55.0859 17.9922C54.7057 18.1849 54.3854 18.4583 54.125 18.8125C53.8698 19.1667 53.6771 19.5911 53.5469 20.0859C53.4167 20.5807 53.3516 21.1302 53.3516 21.7344V22.8828C53.3516 23.4401 53.4089 23.9635 53.5234 24.4531C53.6432 24.9427 53.8229 25.3724 54.0625 25.7422C54.3021 26.112 54.6068 26.4036 54.9766 26.6172C55.3464 26.8255 55.7839 26.9297 56.2891 26.9297C56.9297 26.9297 57.4401 26.8281 57.8203 26.625C58.2005 26.4219 58.487 26.1302 58.6797 25.75C58.8776 25.3698 59.0182 24.9141 59.1016 24.3828ZM67.4219 26.5547V22.2031C67.4219 21.8698 67.3542 21.5807 67.2188 21.3359C67.0885 21.0859 66.8906 20.8932 66.625 20.7578C66.3594 20.6224 66.0312 20.5547 65.6406 20.5547C65.276 20.5547 64.9557 20.6172 64.6797 20.7422C64.4089 20.8672 64.1953 21.0312 64.0391 21.2344C63.888 21.4375 63.8125 21.6562 63.8125 21.8906H62.3672C62.3672 21.5885 62.4453 21.2891 62.6016 20.9922C62.7578 20.6953 62.9818 20.4271 63.2734 20.1875C63.5703 19.9427 63.9245 19.75 64.3359 19.6094C64.7526 19.4635 65.2161 19.3906 65.7266 19.3906C66.3411 19.3906 66.8828 19.4948 67.3516 19.7031C67.8255 19.9115 68.1953 20.2266 68.4609 20.6484C68.7318 21.0651 68.8672 21.5885 68.8672 22.2188V26.1562C68.8672 26.4375 68.8906 26.737 68.9375 27.0547C68.9896 27.3724 69.0651 27.6458 69.1641 27.875V28H67.6562C67.5833 27.8333 67.526 27.612 67.4844 27.3359C67.4427 27.0547 67.4219 26.7943 67.4219 26.5547ZM67.6719 22.875L67.6875 23.8906H66.2266C65.8151 23.8906 65.4479 23.9245 65.125 23.9922C64.8021 24.0547 64.5312 24.151 64.3125 24.2812C64.0938 24.4115 63.9271 24.5755 63.8125 24.7734C63.6979 24.9661 63.6406 25.1927 63.6406 25.4531C63.6406 25.7188 63.7005 25.9609 63.8203 26.1797C63.9401 26.3984 64.1198 26.5729 64.3594 26.7031C64.6042 26.8281 64.9036 26.8906 65.2578 26.8906C65.7005 26.8906 66.0911 26.7969 66.4297 26.6094C66.7682 26.4219 67.0365 26.1927 67.2344 25.9219C67.4375 25.651 67.5469 25.388 67.5625 25.1328L68.1797 25.8281C68.1432 26.0469 68.0443 26.2891 67.8828 26.5547C67.7214 26.8203 67.5052 27.0755 67.2344 27.3203C66.9688 27.5599 66.651 27.7604 66.2812 27.9219C65.9167 28.0781 65.5052 28.1562 65.0469 28.1562C64.474 28.1562 63.9714 28.0443 63.5391 27.8203C63.112 27.5964 62.7786 27.2969 62.5391 26.9219C62.3047 26.5417 62.1875 26.1172 62.1875 25.6484C62.1875 25.1953 62.276 24.7969 62.4531 24.4531C62.6302 24.1042 62.8854 23.8151 63.2188 23.5859C63.5521 23.3516 63.9531 23.1745 64.4219 23.0547C64.8906 22.9349 65.4141 22.875 65.9922 22.875H67.6719ZM72.5859 20.875V28H71.1406V19.5469H72.5469L72.5859 20.875ZM75.2266 19.5L75.2188 20.8438C75.099 20.8177 74.9844 20.8021 74.875 20.7969C74.7708 20.7865 74.651 20.7812 74.5156 20.7812C74.1823 20.7812 73.888 20.8333 73.6328 20.9375C73.3776 21.0417 73.1615 21.1875 72.9844 21.375C72.8073 21.5625 72.6667 21.7865 72.5625 22.0469C72.4635 22.3021 72.3984 22.5833 72.3672 22.8906L71.9609 23.125C71.9609 22.6146 72.0104 22.1354 72.1094 21.6875C72.2135 21.2396 72.3724 20.8438 72.5859 20.5C72.7995 20.151 73.0703 19.8802 73.3984 19.6875C73.7318 19.4896 74.1276 19.3906 74.5859 19.3906C74.6901 19.3906 74.8099 19.4036 74.9453 19.4297C75.0807 19.4505 75.1745 19.474 75.2266 19.5ZM80.4922 19.5469V20.6562H75.9219V19.5469H80.4922ZM77.4688 17.4922H78.9141V25.9062C78.9141 26.1927 78.9583 26.4089 79.0469 26.5547C79.1354 26.7005 79.25 26.7969 79.3906 26.8438C79.5312 26.8906 79.6823 26.9141 79.8438 26.9141C79.9635 26.9141 80.0885 26.9036 80.2188 26.8828C80.3542 26.8568 80.4557 26.8359 80.5234 26.8203L80.5312 28C80.4167 28.0365 80.2656 28.0703 80.0781 28.1016C79.8958 28.138 79.6745 28.1562 79.4141 28.1562C79.0599 28.1562 78.7344 28.0859 78.4375 27.9453C78.1406 27.8047 77.9036 27.5703 77.7266 27.2422C77.5547 26.9089 77.4688 26.4609 77.4688 25.8984V17.4922Z" fill="#2A2C1F"/>
<defs>
<filter id="filter0_d_5_22" x="0" y="0" width="108" height="50" filterUnits="userSpaceOnUse" color-interpolation-filters="sRGB">
<feFlood flood-opacity="0" result="BackgroundImageFix"/>
<feColorMatrix in="SourceAlpha" type="matrix" values="0 0 0 0 0 0 0 0 0 0 0 0 0 0 0 0 0 0 127 0" result="hardAlpha"/>
<feOffset dy="2"/>
<feGaussianBlur stdDeviation="2"/>
<feColorMatrix type="matrix" values="0 0 0 0 0 0 0 0 0 0 0 0 0 0 0 0 0 0 0.08 0"/>
<feBlend mode="normal" in2="BackgroundImageFix" result="effect1_dropShadow_5_22"/>
<feBlend mode="normal" in="SourceGraphic" in2="effect1_dropShadow_5_22" result="shape"/>
</filter>
</defs>
</svg>
